<mxfile host="app.diagrams.net" modified="2023-05-30T21:34:55.317Z" agent="Mozilla/5.0 (Windows NT 10.0; Win64; x64) AppleWebKit/537.36 (KHTML, like Gecko) Chrome/113.0.0.0 Safari/537.36 Edg/113.0.1774.57" version="21.3.6" etag="Mngq_Mmc_b3CXfH_xZ0m" type="gitlab">
  <diagram name="Page-1" id="KksDJcQ3sd0gYTwmEH6W">
    <mxGraphModel>
      <root>
        <mxCell id="0" />
        <mxCell id="1" parent="0" />
      </root>
    </mxGraphModel>
  </diagram>
</mxfile>
